# xmcd
#
# Track frame offsets: 
#        151
#        12376
#        25333
#        39048
#        49563
#        61477
#        73944
#        84698
#        93834
#        108033
#        120672
#        133062
#        144757
#        156653
#        169224
#        179752
#        191522
#        204460
#        215804
#        228730
#
# Disc length: 3262 seconds
#
# Revision: 0
# Processed by: cddbd v1.5.1PL2 Copyright (c) Steve Scherf et al.
# Submitted via: ExactAudioCopy v0.95a4
#
DISCID=220cbc14
DTITLE=Ray Charles - Selections CD2
DYEAR=1900
DGENRE=Blues
TTITLE0=Mess around
TTITLE1=Greenbacks
TTITLE2=The Midnight hour
TTITLE3=Hey now
TTITLE4=See see Rider Blues
TTITLE5=Honey, Honey
TTITLE6=I wonder who´s kissing her now
TTITLE7=All to myself alone
TTITLE8=Baby let me hold your hand
TTITLE9=I´m glad for your sake
TTITLE10=I´ve had my fun
TTITLE11=What have I done
TTITLE12=If I give you my love
TTITLE13=Rockin´ chair blues
TTITLE14=The ego song
TTITLE15=How long
TTITLE16=You´ll always miss the water
TTITLE17=Let´s have a ball
TTITLE18=Can anyone ask for more
TTITLE19=Someday
EXTD=
EXTT0=
EXTT1=
EXTT2=
EXTT3=
EXTT4=
EXTT5=
EXTT6=
EXTT7=
EXTT8=
EXTT9=
EXTT10=
EXTT11=
EXTT12=
EXTT13=
EXTT14=
EXTT15=
EXTT16=
EXTT17=
EXTT18=
EXTT19=
PLAYORDER=
